<svg width="16" height="24" viewBox="0 0 16 24" fill="none" xmlns="http://www.w3.org/2000/svg">
<g clip-path="url(#clip0_11_1208)">
<path d="M15.9984 8.05194C15.9967 9.59284 15.5943 10.8565 15.0353 12.0749C14.0992 14.1162 12.8232 15.9238 11.3778 17.6014C10.4757 18.6486 9.51042 19.6383 8.5603 20.6402C8.15456 21.0681 7.86321 21.057 7.44561 20.648C5.28368 18.5303 3.31059 16.2479 1.75942 13.6041C1.01486 12.3354 0.387373 11.006 0.130013 9.5337C-0.244966 7.38916 0.190441 5.388 1.4017 3.62673C3.35915 0.780919 6.08004 -0.458162 9.4009 0.152173C12.6856 0.755813 14.7849 2.87246 15.7351 6.18467C15.8241 6.49486 15.8791 6.81844 15.9218 7.13923C15.9687 7.49739 15.9833 7.86058 15.9984 8.05194ZM8.10007 19.4129C8.13298 19.3615 8.18693 19.2505 8.26463 19.1618C9.2822 17.9958 10.3375 16.8633 11.3141 15.6622C12.4212 14.3009 13.3703 12.8219 14.0717 11.1862C14.6695 9.79312 14.9549 8.35376 14.6091 6.8441C13.9859 4.12605 12.3824 2.29058 9.78181 1.55137C7.19095 0.81495 4.8936 1.52292 3.04622 3.54807C1.66716 5.0594 1.07474 6.89431 1.30459 8.97469C1.44703 10.2618 1.97308 11.4149 2.58383 12.5268C3.63809 14.4459 4.97507 16.147 6.42642 17.7531C6.93413 18.3144 7.49902 18.8209 8.09953 19.4134L8.10007 19.4129Z" fill="#1E1E1E"/>
<path d="M7.84337 24.0007C6.02405 23.9611 4.10437 23.7324 2.28559 22.9335C1.66081 22.659 1.07972 22.3086 0.612483 21.7876C-0.204917 20.876 -0.198442 19.7133 0.627591 18.8112C1.25022 18.1311 2.04064 17.735 2.87746 17.431C3.21198 17.3094 3.51304 17.4862 3.63228 17.826C3.75259 18.1668 3.62904 18.472 3.2983 18.631C2.95678 18.795 2.59744 18.9261 2.27264 19.1203C1.99586 19.2854 1.73095 19.4918 1.50866 19.7284C1.14771 20.1122 1.13044 20.5278 1.51567 20.8788C1.89335 21.223 2.32821 21.5254 2.78251 21.7507C3.7882 22.2489 4.87807 22.4621 5.97927 22.5937C7.56875 22.784 9.15661 22.7589 10.7364 22.4883C11.8678 22.2947 12.9706 22.0018 13.9526 21.3552C14.1473 21.2269 14.3302 21.0668 14.4878 20.8921C14.8423 20.5 14.8423 20.1317 14.5013 19.7284C14.1306 19.2899 13.6364 19.0405 13.1335 18.8101C12.9857 18.7426 12.8309 18.6918 12.6857 18.6193C12.3685 18.4614 12.2525 18.1663 12.3674 17.8327C12.485 17.4912 12.7774 17.3261 13.119 17.4276C13.3078 17.484 13.4913 17.5649 13.6715 17.6474C14.3 17.9348 14.893 18.2801 15.3699 18.8056C16.2046 19.725 16.2132 20.8871 15.3742 21.8021C14.6453 22.5971 13.6979 23.0032 12.7127 23.3179C11.1718 23.8105 9.585 23.9862 7.84337 24.0002V24.0007Z" fill="#1E1E1E"/>
<path d="M8.01105 5.05864C9.72894 5.06756 11.1226 6.51418 11.1118 8.27768C11.101 10.0429 9.69064 11.4923 7.99055 11.485C6.28777 11.4778 4.87958 10.0105 4.89091 8.25704C4.90278 6.48182 6.29964 5.04971 8.01052 5.05864H8.01105ZM7.98893 6.34514C6.95734 6.35183 6.12051 7.22884 6.1367 8.28716C6.15289 9.3427 6.98539 10.1974 7.99918 10.1985C9.02269 10.1996 9.86814 9.32261 9.86491 8.26261C9.86167 7.19537 9.02323 6.339 7.98893 6.34514Z" fill="#1E1E1E"/>
</g>
<defs>
<clipPath id="clip0_11_1208">
<rect width="16" height="24" fill="white"/>
</clipPath>
</defs>
</svg>
