<svg width="137" height="28" viewBox="0 0 137 28" fill="none" xmlns="http://www.w3.org/2000/svg">
<g clip-path="url(#clip0_17_695)">
<path d="M45.1561 13.1743C45.1561 13.5932 45.1045 13.9683 45.0012 14.2967C44.898 14.6278 44.7586 14.9175 44.5805 15.1683C44.405 15.4192 44.2011 15.6365 43.9714 15.8149C43.7417 15.9934 43.499 16.1408 43.2487 16.252C42.9983 16.3658 42.7428 16.4486 42.4873 16.5003C42.2317 16.5521 41.9891 16.5779 41.7646 16.5779H37.6167V14.7416H41.7646C41.9994 14.7235 42.2111 14.6743 42.4021 14.5968C42.5931 14.5192 42.7557 14.4131 42.8925 14.2812C43.0293 14.1493 43.1351 13.9915 43.21 13.8053C43.2848 13.6191 43.3235 13.4096 43.3235 13.1717V12.3389C43.3003 12.1087 43.2513 11.8966 43.1764 11.7026C43.1016 11.5086 42.9983 11.3457 42.8693 11.2086C42.7402 11.0715 42.5828 10.9655 42.3995 10.8879C42.2162 10.8103 42.0046 10.7715 41.7646 10.7715H37.6322C37.387 10.7715 37.2012 10.8362 37.0747 10.9629C36.9482 11.0896 36.8837 11.2733 36.8837 11.5138V19.0686H35.0511V11.5138C35.0511 11.0431 35.1363 10.6422 35.3093 10.3111C35.4822 9.98268 35.6938 9.71629 35.9519 9.51196C36.2075 9.31023 36.4862 9.1628 36.7882 9.06969C37.0902 8.97659 37.3664 8.93262 37.6193 8.93262H41.7671C42.1801 8.93262 42.5518 8.98693 42.8822 9.09297C43.21 9.19901 43.5016 9.34126 43.752 9.51714C44.0024 9.69301 44.2166 9.89733 44.3947 10.1275C44.5702 10.3577 44.7173 10.6008 44.8309 10.8517C44.947 11.1026 45.0296 11.3586 45.0812 11.6147C45.1329 11.8707 45.1587 12.1138 45.1587 12.3389V13.1717L45.1561 13.1743Z" fill="#1E1E1E"/>
<path d="M56.8277 12.3395C56.8277 12.7585 56.7761 13.1335 56.6729 13.462C56.5696 13.793 56.4302 14.0827 56.2521 14.3336C56.0766 14.587 55.8727 14.8017 55.643 14.9802C55.4133 15.1586 55.1707 15.3061 54.9203 15.4224C54.6699 15.5388 54.4144 15.6216 54.1589 15.6733C53.9034 15.725 53.6607 15.7509 53.4362 15.7509L57.2665 19.0666H54.4299L50.6073 15.7509H49.2884V13.9146H53.4362C53.6659 13.8965 53.8775 13.8473 54.0685 13.7698C54.2595 13.6922 54.4247 13.5861 54.5615 13.4542C54.7009 13.3223 54.8067 13.1645 54.8816 12.9783C54.9564 12.7921 54.9952 12.58 54.9952 12.3395V11.1808C54.9952 11.0773 54.9823 10.9972 54.9564 10.9429C54.9306 10.8885 54.8971 10.8497 54.8584 10.8239C54.8196 10.798 54.7758 10.7825 54.7319 10.7773C54.688 10.7722 54.6467 10.7696 54.608 10.7696H48.5554V19.0666H46.7228V9.85658C46.7228 9.72985 46.746 9.60829 46.7925 9.49708C46.8389 9.38328 46.9035 9.285 46.9861 9.19965C47.0686 9.1143 47.1667 9.04964 47.2777 9.0005C47.3913 8.95394 47.5126 8.93066 47.6442 8.93066H54.6054C55.0132 8.93066 55.3591 9.00567 55.643 9.15309C55.9243 9.30051 56.1541 9.48673 56.3296 9.71175C56.5051 9.93676 56.6316 10.1773 56.7116 10.4359C56.789 10.6946 56.8277 10.9377 56.8277 11.1627V12.3369V12.3395Z" fill="#1E1E1E"/>
<path d="M60.5162 19.0686H58.6836V8.93262H60.5162V19.0686Z" fill="#1E1E1E"/>
<path d="M74.4333 19.0691H72.5853V13.0325L69.3331 18.7639C69.2531 18.9087 69.1421 19.0199 68.9976 19.0949C68.853 19.1699 68.7008 19.2087 68.5356 19.2087C68.3704 19.2087 68.2258 19.1699 68.0865 19.0949C67.9471 19.0199 67.8387 18.9087 67.7587 18.7639L64.4936 13.0325V19.0691H62.661V9.71935C62.661 9.50726 62.723 9.31846 62.8468 9.15293C62.9707 8.9874 63.1359 8.87619 63.3373 8.82188C63.4353 8.7986 63.536 8.79084 63.6341 8.79601C63.7322 8.80377 63.8277 8.82446 63.9206 8.86067C64.0135 8.89688 64.0961 8.94602 64.1709 9.0081C64.2458 9.07275 64.3103 9.14776 64.3619 9.23828L68.5381 16.5111L72.7143 9.23828C72.8228 9.05982 72.9725 8.93309 73.1635 8.8555C73.3545 8.78049 73.5532 8.76756 73.7597 8.81929C73.9584 8.87619 74.1184 8.9874 74.2475 9.15035C74.374 9.31587 74.4385 9.50468 74.4385 9.71676V19.0665L74.4333 19.0691Z" fill="#1E1E1E"/>
<path d="M85.705 19.0686H79.0897C78.8367 19.0686 78.558 19.0246 78.2586 18.9341C77.9566 18.8436 77.6778 18.6961 77.4223 18.4918C77.1668 18.2875 76.9525 18.0211 76.7796 17.6926C76.6067 17.3642 76.5215 16.9633 76.5215 16.4874V9.85854C76.5215 9.7318 76.5447 9.61024 76.5912 9.49903C76.6376 9.38523 76.7022 9.28695 76.7848 9.2016C76.8673 9.11625 76.9654 9.05159 77.0764 9.00245C77.19 8.95589 77.3113 8.93262 77.4429 8.93262H85.7024V10.7689H78.354V16.4874C78.354 16.7279 78.4186 16.9116 78.5451 17.0383C78.6715 17.165 78.8574 17.2297 79.1026 17.2297H85.705V19.066V19.0686ZM84.879 14.9278H79.0897V13.076H84.879V14.9278Z" fill="#1E1E1E"/>
<path d="M97.5521 13.1743C97.5521 13.5932 97.5005 13.9683 97.3972 14.2967C97.294 14.6278 97.1546 14.9175 96.9765 15.1683C96.801 15.4192 96.5971 15.6365 96.3674 15.8149C96.1377 15.9934 95.8951 16.1408 95.6447 16.252C95.3943 16.3658 95.1388 16.4486 94.8833 16.5003C94.6277 16.5521 94.3851 16.5779 94.1606 16.5779H90.0128V14.7416H94.1606C94.3954 14.7235 94.6097 14.6743 94.7981 14.5968C94.9891 14.5192 95.1517 14.4131 95.2885 14.2812C95.4253 14.1493 95.5311 13.9915 95.606 13.8053C95.6808 13.6191 95.7195 13.4096 95.7195 13.1717V12.3389C95.6963 12.1087 95.6473 11.8966 95.5724 11.7026C95.4976 11.5086 95.3943 11.3457 95.2653 11.2086C95.1362 11.0715 94.9788 10.9655 94.7955 10.8879C94.6123 10.8103 94.4006 10.7715 94.1606 10.7715H90.0282C89.783 10.7715 89.5972 10.8362 89.4707 10.9629C89.3443 11.0896 89.2797 11.2733 89.2797 11.5138V19.0686H87.4446V11.5138C87.4446 11.0431 87.5298 10.6422 87.7027 10.3111C87.873 9.98268 88.0873 9.71629 88.3454 9.51196C88.6009 9.31023 88.8797 9.1628 89.1817 9.06969C89.4836 8.97659 89.7598 8.93262 90.0128 8.93262H94.1606C94.5735 8.93262 94.9452 8.98693 95.2756 9.09297C95.606 9.19901 95.8951 9.34126 96.148 9.51714C96.3984 9.69301 96.6126 9.89733 96.7907 10.1275C96.9662 10.3577 97.1133 10.6008 97.2269 10.8517C97.3405 11.1026 97.4256 11.3586 97.4773 11.6147C97.5289 11.8707 97.5547 12.1138 97.5547 12.3389V13.1717L97.5521 13.1743Z" fill="#1E1E1E"/>
<path d="M109.732 14.9692C109.732 15.5874 109.626 16.1538 109.415 16.6736C109.203 17.1909 108.909 17.6383 108.532 18.016C108.155 18.3936 107.711 18.6858 107.195 18.8953C106.681 19.1048 106.119 19.2109 105.512 19.2109H103.029C102.423 19.2109 101.86 19.1048 101.344 18.8953C100.828 18.6858 100.381 18.3936 100.004 18.016C99.6274 17.6383 99.3331 17.1909 99.1189 16.6736C98.9047 16.1564 98.7988 15.5874 98.7988 14.9692V13.032C98.7988 12.4191 98.9047 11.8526 99.1189 11.3328C99.3331 10.8129 99.6274 10.3655 100.004 9.99046C100.381 9.61543 100.828 9.32317 101.344 9.11109C101.86 8.89901 102.423 8.79297 103.029 8.79297H105.512C106.119 8.79297 106.679 8.89901 107.195 9.11109C107.711 9.32317 108.155 9.61543 108.532 9.99046C108.909 10.3655 109.203 10.8129 109.415 11.3328C109.626 11.8526 109.732 12.4191 109.732 13.032V14.9692ZM107.9 13.032C107.9 12.6699 107.843 12.3415 107.727 12.0466C107.611 11.7518 107.448 11.5009 107.239 11.2914C107.03 11.0819 106.777 10.919 106.485 10.8026C106.194 10.6862 105.868 10.6293 105.515 10.6293H103.032C102.676 10.6293 102.348 10.6862 102.056 10.8026C101.762 10.919 101.509 11.0819 101.297 11.2914C101.086 11.5009 100.923 11.7544 100.807 12.0466C100.691 12.3415 100.634 12.6699 100.634 13.032V14.9692C100.634 15.3313 100.691 15.6598 100.807 15.9546C100.923 16.2495 101.086 16.5003 101.297 16.7098C101.509 16.9193 101.762 17.0823 102.056 17.1987C102.35 17.315 102.676 17.3719 103.032 17.3719H105.499C105.856 17.3719 106.183 17.315 106.475 17.1987C106.767 17.0823 107.022 16.9219 107.234 16.7098C107.445 16.5003 107.608 16.2469 107.724 15.9546C107.84 15.6598 107.897 15.3313 107.897 14.9692V13.032H107.9Z" fill="#1E1E1E"/>
<path d="M113.395 19.0686H111.562V8.93262H113.395V19.0686Z" fill="#1E1E1E"/>
<path d="M125.645 18.2855C125.645 18.4174 125.619 18.5389 125.57 18.6527C125.521 18.7665 125.454 18.8648 125.374 18.945C125.291 19.0277 125.193 19.0924 125.082 19.139C124.968 19.1855 124.85 19.2088 124.723 19.2088C124.61 19.2088 124.496 19.1881 124.38 19.1441C124.264 19.1028 124.163 19.0329 124.073 18.9398L117.372 11.9282V19.0665H115.54V9.71683C115.54 9.52803 115.594 9.35733 115.7 9.20473C115.806 9.05214 115.94 8.93833 116.105 8.86074C116.278 8.79091 116.459 8.77281 116.642 8.80643C116.825 8.84264 116.983 8.92799 117.114 9.06507L123.815 16.0689V8.93058H125.647V18.2803L125.645 18.2855Z" fill="#1E1E1E"/>
<path d="M136.916 10.7719H132.874V19.0689H131.042V10.7719H126.992V8.93555H136.916V10.7719Z" fill="#1E1E1E"/>
<path d="M16.0027 18.4177C16.0027 18.4177 21.5856 13.5579 22.8942 11.5069C24.2028 9.45596 25.1991 6.0523 25.2817 3.80992C25.2817 3.80992 29.4166 2.48053 30.0825 6.34197C30.7484 10.2034 26.771 15.8469 25.2817 17.3418C23.7924 18.8367 20.1944 21.824 20.1944 21.824L16.0053 18.4177H16.0027Z" fill="url(#paint0_linear_17_695)"/>
<path d="M10.7091 6.34375C10.7091 6.34375 13.889 8.16972 15.2569 9.45773C15.2569 9.45773 9.69728 14.6693 7.96278 17.5013C6.22829 20.3334 6.2283 24.319 6.2283 24.319C6.2283 24.319 1.67268 25.232 1.09193 22.2447C0.511189 19.2575 2.84965 12.864 10.7116 6.34892L10.7091 6.34375Z" fill="url(#paint1_linear_17_695)"/>
<path d="M5.49256 2.89895C5.49256 2.89895 9.54229 4.55939 10.7012 5.72067C10.7012 5.72067 13.1455 3.93608 15.009 2.47995C15.009 2.47995 11.4807 -0.538335 7.57034 0.100497C3.65999 0.73933 5.49256 2.89636 5.49256 2.89636V2.89895Z" fill="url(#paint2_linear_17_695)"/>
<path d="M16.2401 9.57993L20.6847 6.3418C20.6847 6.3418 29.3004 12.8155 30.2115 18.627C31.1227 24.4386 27.1891 27.9664 20.9738 27.8009C20.9738 27.8009 25.4468 27.9664 25.612 24.6455C25.7772 21.3246 23.351 15.182 16.2401 9.57993Z" fill="url(#paint3_linear_17_695)"/>
<path d="M10.5361 21.826L15.0091 18.5051C15.0091 18.5051 9.20943 14.2713 6.14568 7.29842C3.07935 0.325577 9.62499 -0.504646 11.7776 0.656632C11.7776 0.656632 7.38718 -1.75127 2.83157 2.64813C-1.72405 7.04754 2.25082 16.0119 10.5361 21.8235V21.826Z" fill="url(#paint4_linear_17_695)"/>
<path d="M16.0027 25.6434L20.4757 22.4053C20.4757 22.4053 23.4569 24.3968 25.6121 24.6477C25.6121 24.6477 26.1928 27.8858 20.9739 27.803C20.9739 27.803 18.4883 27.803 16.0027 25.646V25.6434Z" fill="url(#paint5_linear_17_695)"/>
<path d="M16.0027 2.32736L20.5583 5.47238C20.5583 5.47238 28.8926 0.860887 30.1522 7.02678C30.1522 7.02678 30.5006 4.14557 27.8499 2.15148C25.1991 0.157395 20.5609 -1.23407 16.0027 2.32736Z" fill="url(#paint6_linear_17_695)"/>
<path d="M10.6083 22.4058L15.2568 25.6723C15.2568 25.6723 10.8225 28.8018 6.78567 27.8035C2.74885 26.8052 1.0092 24.5654 1.09179 22.2402C1.09179 22.2402 3.39154 26.7224 10.6083 22.4058Z" fill="url(#paint7_linear_17_695)"/>
</g>
<defs>
<linearGradient id="paint0_linear_17_695" x1="16.0027" y1="12.707" x2="30.1574" y2="12.707" gradientUnits="userSpaceOnUse">
<stop stop-color="#D9CFF0"/>
<stop offset="1" stop-color="#DFEAFE"/>
</linearGradient>
<linearGradient id="paint1_linear_17_695" x1="1.00676" y1="15.3934" x2="15.2569" y2="15.3934" gradientUnits="userSpaceOnUse">
<stop stop-color="#D9CFF0"/>
<stop offset="1" stop-color="#DFEAFE"/>
</linearGradient>
<linearGradient id="paint2_linear_17_695" x1="5.0641" y1="2.86532" x2="15.009" y2="2.86532" gradientUnits="userSpaceOnUse">
<stop stop-color="#D9CFF0"/>
<stop offset="1" stop-color="#DFEAFE"/>
</linearGradient>
<linearGradient id="paint3_linear_17_695" x1="16.2401" y1="17.0752" x2="30.3406" y2="17.0752" gradientUnits="userSpaceOnUse">
<stop/>
<stop offset="1" stop-color="#616161"/>
</linearGradient>
<linearGradient id="paint4_linear_17_695" x1="0.916402" y1="10.9116" x2="15.0091" y2="10.9116" gradientUnits="userSpaceOnUse">
<stop/>
<stop offset="1" stop-color="#616161"/>
</linearGradient>
<linearGradient id="paint5_linear_17_695" x1="0.916237" y1="25.1054" x2="25.6301" y2="25.1054" gradientUnits="userSpaceOnUse">
<stop stop-color="#D9CFF0"/>
<stop offset="1" stop-color="#DFEAFE"/>
</linearGradient>
<linearGradient id="paint6_linear_17_695" x1="16.0027" y1="3.57916" x2="30.1677" y2="3.57916" gradientUnits="userSpaceOnUse">
<stop/>
<stop offset="1" stop-color="#616161"/>
</linearGradient>
<linearGradient id="paint7_linear_17_695" x1="1.08921" y1="25.1214" x2="15.2568" y2="25.1214" gradientUnits="userSpaceOnUse">
<stop/>
<stop offset="1" stop-color="#616161"/>
</linearGradient>
<clipPath id="clip0_17_695">
<rect width="136" height="28" fill="white" transform="translate(0.91626)"/>
</clipPath>
</defs>
</svg>
